<svg width="52" height="56" viewBox="0 0 52 56" fill="none" xmlns="http://www.w3.org/2000/svg">
<path fill-rule="evenodd" clip-rule="evenodd" d="M50.5232 40.3492L46.6084 45.0339C43.026 49.3208 38.1839 52.359 32.7761 53.7128C27.3683 55.0667 21.6725 54.6668 16.505 52.5704C11.3375 50.474 6.96365 46.7887 4.01024 42.0429C1.05683 37.297 -0.324469 31.7341 0.0643068 26.1515C0.453082 20.5688 2.59198 15.2531 6.17444 10.9661C9.7569 6.67916 14.599 3.64103 20.0068 2.28717C25.4145 0.933317 31.1103 1.33324 36.2778 3.42964C41.4453 5.52603 45.8192 9.21126 48.7726 13.9571L52 19.1433L37 28L50.5232 40.3492ZM26 28L43.6077 17.1978C42.5062 15.4277 41.1477 13.8494 39.5874 12.5092C37.9296 11.0854 36.044 9.93042 33.9964 9.09972C30.0214 7.48711 25.64 7.17947 21.4802 8.2209C17.3203 9.26233 13.5956 11.5994 10.8399 14.897C8.08416 18.1947 6.43885 22.2837 6.1398 26.578C5.84074 30.8724 6.90328 35.1515 9.17513 38.8022C11.447 42.4529 14.8115 45.2877 18.7865 46.9003C22.7615 48.5129 27.1429 48.8205 31.3027 47.7791C33.4455 47.2426 35.4729 46.3624 37.3119 45.1841C39.0428 44.075 40.6068 42.7019 41.943 41.103L26 28Z" fill="white"/>
<circle cx="23.5" cy="18.5" r="2.5" fill="white"/>
</svg>
