<svg width="80" height="16" viewBox="0 0 80 16" fill="none" xmlns="http://www.w3.org/2000/svg">
<path d="M0 16V0H2.36671V6.80581L1.98971 6.50991C2.26897 5.79128 2.71579 5.24879 3.33015 4.88243C3.94452 4.50198 4.65663 4.31176 5.46648 4.31176C6.30425 4.31176 7.04429 4.49494 7.68658 4.8613C8.32888 5.22765 8.83154 5.73492 9.19458 6.38309C9.55761 7.03126 9.73913 7.77103 9.73913 8.60238V16H7.39336V9.2576C7.39336 8.67988 7.28166 8.19375 7.05825 7.79921C6.84881 7.39058 6.55559 7.08058 6.17859 6.86922C5.80159 6.64377 5.36874 6.53104 4.88004 6.53104C4.4053 6.53104 3.97245 6.64377 3.58149 6.86922C3.20449 7.08058 2.90429 7.39058 2.68088 7.79921C2.47143 8.20784 2.36671 8.69397 2.36671 9.2576V16H0Z" fill="white"/>
<g clip-path="url(#clip0_28_760)">
<circle cx="17.7653" cy="7.59631" r="0.57971" fill="white"/>
<circle cx="22.7067" cy="9.96423" r="0.57971" fill="white"/>
<path fill-rule="evenodd" clip-rule="evenodd" d="M23.3679 12.7807L22.4736 13.8465C21.6552 14.8218 20.5491 15.513 19.3137 15.821C18.0783 16.129 16.7772 16.0381 15.5967 15.5611C14.4162 15.0842 13.417 14.2457 12.7423 13.166C12.0676 12.0863 11.752 10.8207 11.8409 9.55057C11.9297 8.28047 12.4183 7.07109 13.2367 6.09577C14.0551 5.12044 15.1612 4.42924 16.3966 4.12123C17.632 3.81321 18.9332 3.9042 20.1137 4.38115C21.2941 4.8581 22.2933 5.69652 22.968 6.77625L23.7053 7.95614L20.2164 10.1362L23.3679 12.7807ZM17.8552 9.97113L21.7881 7.51353C21.5365 7.11081 21.2262 6.75174 20.8697 6.44684C20.491 6.12291 20.0602 5.86013 19.5925 5.67114C18.6844 5.30426 17.6835 5.23427 16.7332 5.4712C15.7829 5.70814 14.932 6.23983 14.3025 6.99008C13.673 7.74033 13.2971 8.67062 13.2288 9.64762C13.1605 10.6246 13.4032 11.5982 13.9222 12.4287C14.4412 13.2593 15.2098 13.9042 16.1179 14.2711C17.0259 14.638 18.0268 14.708 18.9771 14.471C19.4666 14.349 19.9298 14.1487 20.3499 13.8807C20.7453 13.6283 21.1026 13.3159 21.4078 12.9522L17.8552 9.97113Z" fill="white"/>
<circle cx="25.1598" cy="9.96423" r="0.57971" fill="white"/>
</g>
<g clip-path="url(#clip1_28_760)">
<circle cx="33.0699" cy="7.59631" r="0.57971" fill="white"/>
<circle cx="38.0114" cy="9.96423" r="0.57971" fill="white"/>
<path fill-rule="evenodd" clip-rule="evenodd" d="M38.6726 12.7807L37.7783 13.8465C36.9599 14.8218 35.8538 15.513 34.6184 15.821C33.383 16.129 32.0818 16.0381 30.9014 15.5611C29.7209 15.0842 28.7217 14.2457 28.047 13.166C27.3723 12.0863 27.0567 10.8207 27.1455 9.55057C27.2344 8.28047 27.723 7.07109 28.5414 6.09577C29.3598 5.12044 30.4659 4.42924 31.7013 4.12123C32.9367 3.81321 34.2379 3.9042 35.4183 4.38115C36.5988 4.8581 37.598 5.69652 38.2727 6.77625L39.01 7.95614L35.5211 10.1362L38.6726 12.7807ZM33.1598 9.97113L37.0928 7.51353C36.8412 7.11081 36.5309 6.75174 36.1744 6.44684C35.7957 6.12291 35.3649 5.86013 34.8972 5.67114C33.9891 5.30426 32.9882 5.23427 32.0379 5.4712C31.0876 5.70814 30.2367 6.23983 29.6072 6.99008C28.9776 7.74033 28.6018 8.67062 28.5335 9.64762C28.4651 10.6246 28.7079 11.5982 29.2269 12.4287C29.7459 13.2593 30.5145 13.9042 31.4225 14.2711C32.3306 14.638 33.3315 14.708 34.2818 14.471C34.7713 14.349 35.2345 14.1487 35.6546 13.8807C36.05 13.6283 36.4073 13.3159 36.7125 12.9522L33.1598 9.97113Z" fill="white"/>
<circle cx="40.4645" cy="9.96423" r="0.57971" fill="white"/>
</g>
<path d="M72.7943 16C71.7339 16 70.7619 15.7485 69.8783 15.2455C69.0082 14.7426 68.3149 14.056 67.7983 13.186C67.2817 12.3159 67.0234 11.3304 67.0234 10.2292C67.0234 9.11446 67.2817 8.12886 67.7983 7.27241C68.3149 6.40237 69.0082 5.72265 69.8783 5.23325C70.7483 4.73026 71.7203 4.47876 72.7943 4.47876C73.8818 4.47876 74.8538 4.73026 75.7103 5.23325C76.5803 5.72265 77.2668 6.40237 77.7698 7.27241C78.2864 8.12886 78.5447 9.11446 78.5447 10.2292C78.5447 11.3439 78.2864 12.3363 77.7698 13.2064C77.2532 14.0764 76.5599 14.7629 75.6899 15.2659C74.8198 15.7553 73.8546 16 72.7943 16ZM72.7943 13.8589C73.4468 13.8589 74.0246 13.7026 74.5276 13.3899C75.0306 13.0772 75.4248 12.649 75.7103 12.1052C76.0094 11.5479 76.1589 10.9225 76.1589 10.2292C76.1589 9.53589 76.0094 8.91734 75.7103 8.37356C75.4248 7.82979 75.0306 7.40156 74.5276 7.08889C74.0246 6.77622 73.4468 6.61988 72.7943 6.61988C72.1553 6.61988 71.5776 6.77622 71.061 7.08889C70.558 7.40156 70.157 7.82979 69.8579 8.37356C69.5724 8.91734 69.4297 9.53589 69.4297 10.2292C69.4297 10.9225 69.5724 11.5479 69.8579 12.1052C70.157 12.649 70.558 13.0772 71.061 13.3899C71.5776 13.7026 72.1553 13.8589 72.7943 13.8589Z" fill="white"/>
<path d="M59.472 16C58.4116 16 57.4396 15.7485 56.556 15.2455C55.686 14.7426 54.9926 14.056 54.4761 13.186C53.9595 12.3159 53.7012 11.3304 53.7012 10.2292C53.7012 9.11446 53.9595 8.12886 54.4761 7.27241C54.9926 6.40237 55.686 5.72265 56.556 5.23325C57.426 4.73026 58.398 4.47876 59.472 4.47876C60.5596 4.47876 61.5316 4.73026 62.388 5.23325C63.2581 5.72265 63.9446 6.40237 64.4476 7.27241C64.9642 8.12886 65.2224 9.11446 65.2224 10.2292C65.2224 11.3439 64.9642 12.3363 64.4476 13.2064C63.931 14.0764 63.2377 14.7629 62.3676 15.2659C61.4976 15.7553 60.5324 16 59.472 16ZM59.472 13.8589C60.1245 13.8589 60.7023 13.7026 61.2053 13.3899C61.7083 13.0772 62.1025 12.649 62.388 12.1052C62.6871 11.5479 62.8366 10.9225 62.8366 10.2292C62.8366 9.53589 62.6871 8.91734 62.388 8.37356C62.1025 7.82979 61.7083 7.40156 61.2053 7.08889C60.7023 6.77622 60.1245 6.61988 59.472 6.61988C58.8331 6.61988 58.2553 6.77622 57.7387 7.08889C57.2357 7.40156 56.8347 7.82979 56.5356 8.37356C56.2501 8.91734 56.1074 9.53589 56.1074 10.2292C56.1074 10.9225 56.2501 11.5479 56.5356 12.1052C56.8347 12.649 57.2357 13.0772 57.7387 13.3899C58.2553 13.7026 58.8331 13.8589 59.472 13.8589Z" fill="white"/>
<path d="M47.7942 16C46.6659 16 45.6735 15.7213 44.817 15.164C43.9742 14.6066 43.3828 13.8589 43.043 12.9209L44.817 12.0848C45.1161 12.7102 45.524 13.2064 46.0405 13.5734C46.5707 13.9405 47.1553 14.124 47.7942 14.124C48.338 14.124 48.7798 14.0017 49.1197 13.757C49.4595 13.5123 49.6295 13.1792 49.6295 12.7578C49.6295 12.4859 49.5547 12.2684 49.4052 12.1052C49.2556 11.9285 49.0653 11.7858 48.8342 11.677C48.6167 11.5683 48.3924 11.4867 48.1613 11.4323L46.428 10.9429C45.4764 10.671 44.7627 10.2632 44.2869 9.71941C43.8246 9.16204 43.5935 8.5163 43.5935 7.7822C43.5935 7.11608 43.7635 6.53832 44.1033 6.04892C44.4432 5.54592 44.9122 5.15848 45.5104 4.88659C46.1085 4.6147 46.7814 4.47876 47.5291 4.47876C48.5351 4.47876 49.4323 4.73026 50.2208 5.23325C51.0093 5.72265 51.5667 6.40917 51.8929 7.29281L50.1189 8.12886C49.9014 7.59868 49.5547 7.17725 49.0789 6.86458C48.6167 6.55191 48.0933 6.39557 47.5087 6.39557C47.0057 6.39557 46.6047 6.51792 46.3056 6.76262C46.0066 6.99373 45.857 7.2996 45.857 7.68025C45.857 7.93854 45.925 8.15605 46.0609 8.33278C46.1969 8.49591 46.3736 8.63186 46.5911 8.74061C46.8086 8.83577 47.0329 8.91734 47.264 8.98531L49.0585 9.51549C49.9693 9.77379 50.6694 10.1816 51.1588 10.739C51.6482 11.2828 51.8929 11.9353 51.8929 12.6966C51.8929 13.3491 51.7162 13.9269 51.3628 14.4299C51.0229 14.9193 50.5471 15.3067 49.9353 15.5922C49.3236 15.8641 48.6099 16 47.7942 16Z" fill="white"/>
<defs>
<clipPath id="clip0_28_760">
<rect width="13.913" height="12.5217" fill="white" transform="translate(11.8262 3.47827)"/>
</clipPath>
<clipPath id="clip1_28_760">
<rect width="13.913" height="12.5217" fill="white" transform="translate(27.1309 3.47827)"/>
</clipPath>
</defs>
</svg>
